<svg width="240" height="86" viewBox="0 0 240 86" fill="none" xmlns="http://www.w3.org/2000/svg">
<g clip-path="url(#clip0_1619_6391)">
<path d="M74.9601 11.1928C77.0186 9.06755 79.6806 8.00494 82.8749 8.00494C87.1695 8.00494 90.2928 9.42175 92.2804 12.2554C93.3807 13.8493 93.9485 15.4432 94.055 17.0371H88.6602C88.3052 15.7974 87.8793 14.8764 87.3469 14.2389C86.3886 13.1409 84.9689 12.5741 83.0878 12.5741C81.1713 12.5741 79.6451 13.3534 78.5448 14.9473C77.4445 16.5058 76.8767 18.7372 76.8767 21.6417C76.8767 24.5461 77.4445 26.6713 78.6158 28.1236C79.787 29.5758 81.2777 30.2842 83.0524 30.2842C84.898 30.2842 86.3177 29.682 87.276 28.4423C87.8083 27.7694 88.2697 26.7776 88.6247 25.4671H93.984C93.5226 28.2652 92.3514 30.5321 90.4348 32.3031C88.5537 34.0741 86.1047 34.9242 83.1588 34.9242C79.5031 34.9242 76.6282 33.7554 74.5342 31.3822C72.4401 29.0091 71.3753 25.7504 71.3753 21.5708C71.4108 17.1079 72.5821 13.6367 74.9601 11.1928Z" fill="#1541FB"/>
<path d="M98.3141 34.2158V8.53625H103.638V18.3476H113.647V8.53625H119.006V34.2158H113.647V22.7397H103.638V34.2158H98.3141Z" fill="#1541FB"/>
<path d="M131.535 8.53625H137.604L146.726 34.2158H140.905L139.201 28.9382H129.725L127.986 34.2158H122.343L131.535 8.53625ZM131.18 24.5107H137.782L134.516 14.416L131.18 24.5107Z" fill="#1541FB"/>
<path d="M154.925 34.2158H149.565V8.53625H154.925V34.2158Z" fill="#1541FB"/>
<path d="M159.858 8.53625H165.501L175.723 26.4588V8.53625H180.728V34.2158H175.333L164.862 15.9745V34.2158H159.858V8.53625Z" fill="#1541FB"/>
<path d="M74.9601 54.0511C77.0186 51.9259 79.6806 50.8633 82.8749 50.8633C87.1695 50.8633 90.2928 52.2801 92.2804 55.1137C93.3807 56.7076 93.9485 58.3015 94.055 59.8954H88.6602C88.3052 58.6557 87.8793 57.7348 87.3469 57.0972C86.3886 55.9992 84.9689 55.4325 83.0878 55.4325C81.1713 55.4325 79.6451 56.2117 78.5448 57.8056C77.4445 59.3641 76.8767 61.5956 76.8767 64.5C76.8767 67.369 77.4445 69.5297 78.6158 70.9819C79.787 72.4341 81.2777 73.1425 83.0524 73.1425C84.898 73.1425 86.3177 72.5404 87.276 71.3007C87.8083 70.6277 88.2697 69.6359 88.6247 68.3254H93.984C93.5226 71.1236 92.3514 73.3905 90.4348 75.1615C88.5537 76.9325 86.1047 77.7826 83.1588 77.7826C79.5031 77.7826 76.6282 76.6137 74.5342 74.2405C72.4401 71.8674 71.3753 68.6087 71.3753 64.4292C71.4108 59.9308 72.5821 56.4597 74.9601 54.0511Z" fill="#1541FB"/>
<path d="M105.697 51.3591H111.801L120.923 77.0387H115.102L113.398 71.7611H103.922L102.183 77.0387H96.5395L105.697 51.3591ZM105.342 67.3336H111.943L108.678 57.2389L105.342 67.3336Z" fill="#1541FB"/>
<path d="M140.231 51.3591V55.8929H132.529V77.0387H127.099V55.8929H119.361V51.3591H140.231Z" fill="#1541FB"/>
<path d="M145.839 54.0511C147.897 51.9259 150.559 50.8633 153.753 50.8633C158.048 50.8633 161.171 52.2801 163.159 55.1137C164.259 56.7076 164.827 58.3015 164.933 59.8954H159.539C159.184 58.6557 158.758 57.7348 158.225 57.0972C157.267 55.9992 155.847 55.4325 153.966 55.4325C152.05 55.4325 150.524 56.2117 149.423 57.8056C148.323 59.3641 147.755 61.5956 147.755 64.5C147.755 67.369 148.323 69.5297 149.494 70.9819C150.666 72.4341 152.156 73.1425 153.931 73.1425C155.776 73.1425 157.196 72.5404 158.154 71.3007C158.687 70.6277 159.148 69.6359 159.503 68.3254H164.862C164.401 71.1236 163.23 73.3905 161.313 75.1615C159.432 76.9325 156.983 77.7826 154.037 77.7826C150.382 77.7826 147.507 76.6137 145.413 74.2405C143.319 71.8674 142.254 68.6087 142.254 64.4292C142.254 59.9308 143.461 56.4597 145.839 54.0511Z" fill="#1541FB"/>
<path d="M169.193 77.0387V51.3591H174.552V61.1705H184.561V51.3591H189.885V77.0387H184.525V65.5626H174.516V77.0387H169.193Z" fill="#1541FB"/>
<path d="M214.09 55.8929H200.461V61.3476H212.955V65.8105H200.461V72.3987H214.729V77.0033H195.208V51.3591H214.09V55.8929Z" fill="#1541FB"/>
<path d="M235.386 52.0321C236.344 52.4217 237.125 53.0239 237.799 53.8385C238.332 54.4761 238.793 55.2199 239.077 55.9992C239.397 56.7784 239.539 57.6993 239.539 58.6911C239.539 59.8954 239.219 61.0997 238.616 62.3039C238.012 63.4728 236.983 64.3229 235.563 64.8188C236.735 65.2792 237.586 65.9876 238.083 66.8377C238.58 67.7232 238.829 69.0692 238.829 70.8402V72.5758C238.829 73.7446 238.864 74.5593 238.971 74.9489C239.113 75.6219 239.432 76.0824 239.964 76.4011V77.0387H234.037C233.86 76.472 233.753 76.0115 233.682 75.6573C233.54 74.9489 233.469 74.2051 233.469 73.4613L233.434 71.0881C233.398 69.4588 233.114 68.3608 232.582 67.7941C232.05 67.2628 231.02 66.9794 229.53 66.9794H224.277V77.0387H219.024V51.3591H231.34C233.114 51.3946 234.463 51.6071 235.386 52.0321ZM224.277 55.8221V62.729H230.062C231.198 62.729 232.085 62.5873 232.653 62.3039C233.682 61.8081 234.179 60.8517 234.179 59.3995C234.179 57.841 233.682 56.8138 232.689 56.2471C232.121 55.9283 231.304 55.7866 230.204 55.7866H224.277V55.8221Z" fill="#1541FB"/>
<path fill-rule="evenodd" clip-rule="evenodd" d="M29.6362 82.9184L23.8154 86V11.7595L29.6362 15.266V82.9184Z" fill="#1541FB"/>
<path fill-rule="evenodd" clip-rule="evenodd" d="M11.9255 73.2842L17.7817 76.5782V20.1895L11.9255 22.6689V73.2842Z" fill="#1541FB"/>
<path fill-rule="evenodd" clip-rule="evenodd" d="M0 60.0725L5.85626 62.1977V26.4943L0 28.7966V60.0725Z" fill="#1541FB"/>
<path fill-rule="evenodd" clip-rule="evenodd" d="M5.85626 22.3146L0 24.9003V13.495L5.85626 11.4407V22.3146Z" fill="#1541FB"/>
<path fill-rule="evenodd" clip-rule="evenodd" d="M17.7817 15.9391L11.9255 18.2414V6.76524L17.7817 3.71912V15.9391Z" fill="#1541FB"/>
<path fill-rule="evenodd" clip-rule="evenodd" d="M41.3132 73.2842L35.457 76.5782V20.1895L41.3132 23.6252V73.2842Z" fill="#1541FB"/>
<path fill-rule="evenodd" clip-rule="evenodd" d="M53.0967 60.0725L47.205 62.1977V28.7611L53.0967 31.9843V60.0725Z" fill="#1541FB"/>
<path fill-rule="evenodd" clip-rule="evenodd" d="M47.205 24.2627L53.0967 27.6985V13.495L47.5599 11.4407L47.205 24.2627Z" fill="#1541FB"/>
<path fill-rule="evenodd" clip-rule="evenodd" d="M35.457 15.939L41.3132 19.7644V6.76524L35.457 3.71912V15.939Z" fill="#1541FB"/>
<path fill-rule="evenodd" clip-rule="evenodd" d="M23.8154 7.61532L29.7072 11.4053L29.6362 3.54201L23.8154 0V7.61532Z" fill="#1541FB"/>
</g>
<defs>
<clipPath id="clip0_1619_6391">
<rect width="240" height="86" fill="white"/>
</clipPath>
</defs>
</svg>
