<svg width="512" height="178" viewBox="0 0 512 178" fill="none" xmlns="http://www.w3.org/2000/svg">
<g clip-path="url(#clip0_17830_26746)">
<rect width="177.788" height="177.788" rx="88.8942" fill="white"/>
<g clip-path="url(#clip1_17830_26746)">
<path d="M3.41943 143.635H204.772L179.056 119.698L152.506 23.95L103.607 56.8633L43.2009 23.95L23.0657 116.706L3.41943 143.635Z" fill="black"/>
<path d="M25.5089 143.671L11.5581 179.577H185.641L173.301 143.671H25.5089Z" fill="black"/>
<path d="M96.9901 140.673C96.9901 153.539 86.9801 163.951 74.6113 163.951C62.2425 163.951 52.2324 153.539 52.2324 140.673" fill="white"/>
<path d="M157.396 140.673C157.396 153.539 147.386 163.951 135.017 163.951C122.648 163.951 112.638 153.539 112.638 140.673" fill="white"/>
<path d="M80.0688 155.614C86.4233 155.614 91.5747 150.255 91.5747 143.645C91.5747 137.035 86.4233 131.677 80.0688 131.677C73.7143 131.677 68.563 137.035 68.563 143.645C68.563 150.255 73.7143 155.614 80.0688 155.614Z" fill="black"/>
<path d="M139.29 155.614C145.645 155.614 150.796 150.255 150.796 143.645C150.796 137.035 145.645 131.677 139.29 131.677C132.936 131.677 127.784 137.035 127.784 143.645C127.784 150.255 132.936 155.614 139.29 155.614Z" fill="black"/>
</g>
</g>
<path d="M188.841 158.327L210.763 19.4262H280.582L275.424 52.2171H243.186L240.238 71.5601H269.161L263.818 104.351H234.896L231.58 125.536H263.818L258.66 158.327H188.841Z" fill="black"/>
<path d="M337.326 158.327H271.56L293.482 19.4262H331.062L314.299 125.536H342.484L337.326 158.327Z" fill="black"/>
<path d="M381.065 158.327H343.484L365.406 19.4262H431.725L426.567 52.2171H397.829L394.697 72.297H421.593L416.435 105.088H389.539L381.065 158.327Z" fill="black"/>
<path d="M512 158.327H473.13V140.458H447.892L441.997 158.327H403.311L458.576 19.4262H504.447L512 158.327ZM457.655 110.983H473.498L474.419 78.7446C474.542 76.1655 474.665 73.4023 474.788 70.4548C475.033 67.5073 475.217 64.3141 475.34 60.8754C475.586 57.3138 475.77 54.5505 475.893 52.5855H475.524C471.226 67.5687 468.647 76.2884 467.787 78.7446L457.655 110.983Z" fill="black"/>
<defs>
<clipPath id="clip0_17830_26746">
<rect width="177.788" height="177.788" rx="88.8942" fill="white"/>
</clipPath>
<clipPath id="clip1_17830_26746">
<rect width="201.352" height="155.59" fill="white" transform="translate(3.41943 23.9487)"/>
</clipPath>
</defs>
</svg>
