<svg xmlns="http://www.w3.org/2000/svg" width="866" height="236" viewBox="0 0 866 236" fill="none">
<g clip-path="url(#clip0_3009_3235)">
<circle cx="105.549" cy="131.576" r="103.545" fill="#F0F8FD"/>
<path d="M209.093 131.602C209.093 188.788 162.735 235.147 105.549 235.147C48.3624 235.147 2.00391 188.788 2.00391 131.602C2.00391 74.4158 48.3624 138.987 105.549 138.987C162.735 138.987 165.432 183.449 209.093 131.602Z" fill="#CBE6F7"/>
<path d="M165.749 215.928C148.785 228.07 128.001 235.217 105.549 235.217C48.3624 235.217 2.00391 188.858 2.00391 131.672C57.3883 197.684 81.4684 154.247 110.365 168.695C139.261 183.143 124.813 211.362 165.749 215.928Z" fill="#84C7F1"/>
<path d="M109.813 26.8145C133.859 26.8146 156.511 35.2194 174.316 49.4297C176.859 47.6511 180.049 46.7834 183.367 47.2246C190.396 48.1599 195.336 54.6167 194.401 61.6455C194.105 63.8728 193.253 65.8898 192.006 67.5771C205.04 84.8441 212.54 106.479 211.537 130.257C210.291 159.819 200.709 180.866 192.597 192.18C194.102 194.614 194.808 197.563 194.401 200.621C193.466 207.65 187.009 212.59 179.98 211.655C172.952 210.72 168.011 204.263 168.946 197.234C169.882 190.206 176.338 185.266 183.367 186.2C185.339 186.463 187.147 187.16 188.707 188.183C198.498 172.086 206.349 142.951 206.636 127.927C206.82 118.275 203.312 93.4825 187.646 71.3184C185.374 72.5151 182.721 73.0441 179.98 72.6797C172.952 71.7442 168.011 65.2885 168.946 58.2598C169.195 56.387 169.836 54.6619 170.775 53.1572C156.513 41.492 136.83 32.7101 109.813 30.8271C93.5196 29.6917 64.8375 36.1636 42.8096 56.6631C43.314 58.3502 43.4777 60.1687 43.2305 62.0273C42.3003 69.0189 35.9082 73.9428 28.9229 73.0752C19.7364 87.0211 13.4306 105.019 12.5527 127.927C11.0082 168.236 34.8227 179.279 53.832 172.232C55.3347 168.994 56.2479 164.977 57.5166 158.409C59.374 149.502 60.8004 140.427 62.3535 131.505L62.5557 130.422C64.6708 119.255 67.6812 108.499 73.6973 98.6328C76.0151 94.9412 78.8558 91.7042 81.9082 88.54C84.8994 85.4395 88.2571 82.2516 91.2559 78.9707L93.8037 76.1826L90.0439 75.8252C84.9832 75.3427 80.3251 75.2762 75.5049 75.2725L70.6084 75.2764C69.731 75.2761 69.15 75.1946 68.7764 75.0273C68.6173 74.956 68.5185 74.8777 68.4473 74.7939C68.3851 74.7205 68.3017 74.5939 68.2324 74.3691L68.2041 74.2666L68.2002 74.248L68.1943 74.2305C68.0138 73.5779 68.2157 72.8975 69.2275 71.9033L69.2432 71.8877C73.3443 67.7603 76.9132 63.876 80.9863 59.874C83.7673 57.142 87.0425 55.9032 90.9531 55.9043C102.544 56.0052 113.879 55.9601 125.384 56.1094H125.393L125.921 56.1211C128.477 56.2091 129.787 56.7786 130.521 57.5605C131.329 58.4209 131.871 59.9855 131.865 63.0078C131.767 74.2403 131.422 85.8966 131.368 97.333L131.358 97.6768C131.223 101.221 129.943 104.203 127.48 106.787C123.747 110.644 119.916 114.409 116.065 118.192C114.686 119.548 113.796 119.921 112.81 119.561L112.754 119.54L112.697 119.523C112.346 119.42 112.207 119.3 112.15 119.241C112.092 119.179 112.023 119.075 111.965 118.859C111.902 118.625 111.864 118.313 111.852 117.877C111.838 117.402 111.853 117.044 111.85 116.464C112.05 110.457 112.251 104.547 112.518 97.5273L112.671 93.4854L109.477 95.9688C98.5637 104.458 90.8977 113.788 88.333 126.432L88.332 126.438C87.2667 131.787 86.2626 137.147 85.2539 142.524C84.2446 147.905 83.2304 153.306 82.1436 158.752C82.0013 159.413 81.9033 160.079 81.9102 160.694C81.9127 160.92 81.9306 161.18 81.9805 161.454C82.0832 161.742 82.1784 162.04 82.2705 162.343C82.3458 162.493 82.4364 162.641 82.5449 162.784L82.6816 162.964L82.8574 163.106C83.537 163.658 84.3379 163.809 84.9727 163.836C85.6089 163.863 86.2884 163.775 86.9502 163.645L88.9971 163.275C93.7681 162.423 98.5075 161.62 103.23 160.82C108.624 159.907 114.002 158.997 119.368 158.026L119.968 157.911C132.358 155.448 141.661 148.014 150.206 137.421L152.745 134.272L148.701 134.354C141.678 134.498 135.765 134.593 129.756 134.688C129.175 134.675 128.818 134.683 128.343 134.661C127.907 134.641 127.594 134.598 127.361 134.53C127.147 134.468 127.044 134.398 126.983 134.339C126.933 134.289 126.838 134.174 126.749 133.91L126.711 133.787L126.695 133.729L126.676 133.673C126.332 132.68 126.722 131.797 128.102 130.441C131.473 127.129 134.831 123.83 138.247 120.601L139.715 119.222C142.425 116.733 145.535 115.509 149.227 115.51C160.662 115.658 172.324 115.519 183.557 115.618C186.578 115.666 188.132 116.235 188.978 117.058C189.798 117.856 190.366 119.303 190.339 122.211V122.219C190.285 133.724 190.04 145.056 189.937 156.646L189.928 157.013C189.787 160.761 188.487 163.897 185.793 166.544C182.229 170.046 178.762 173.162 175.138 176.585L173.574 178.073L173.558 178.089C172.546 179.083 171.862 179.272 171.213 179.08L171.195 179.074L171.177 179.069C170.888 178.99 170.737 178.89 170.654 178.817C170.572 178.745 170.494 178.644 170.426 178.483C170.265 178.107 170.195 177.526 170.21 176.648L170.3 171.752C170.381 166.932 170.398 162.275 170.005 157.206L169.712 153.44L166.88 155.938C163.547 158.879 160.3 162.18 157.147 165.116C153.93 168.112 150.644 170.896 146.912 173.148C136.619 179.178 125.434 181.989 113.845 183.911C104.899 185.306 95.8035 186.574 86.8672 188.273L83.916 188.794C78.9158 189.693 75.5281 190.418 72.6729 191.574C70.1619 192.315 67.6617 193.147 65.3691 193.866C33.5488 209.186 -4.05741 184.442 0.355469 130.815C2.32599 106.87 10.1969 86.3929 22.165 70.0996C18.9698 67.3662 17.1798 63.1202 17.7754 58.6416C18.7106 51.6128 25.1675 46.6718 32.1963 47.6064C35.1962 48.0056 37.8152 49.4116 39.7598 51.4375C58.9926 35.511 83.5698 26.8145 109.813 26.8145ZM66.041 171.693C61.6128 171.104 57.5444 174.217 56.9551 178.646C56.366 183.074 59.4788 187.141 63.9072 187.73C68.3354 188.319 72.403 185.207 72.9922 180.779C73.5811 176.351 70.469 172.283 66.041 171.693ZM201.982 0.717773C202.753 -0.238566 204.211 -0.2386 204.981 0.717773L209.977 6.91699C210.191 7.1826 210.472 7.38629 210.791 7.50781L218.23 10.3438C219.378 10.7814 219.828 12.1676 219.156 13.1963L214.805 19.8623C214.618 20.148 214.511 20.4786 214.494 20.8193L214.097 28.7705C214.035 29.9974 212.856 30.8539 211.67 30.5332L203.984 28.4541C203.655 28.3652 203.309 28.3652 202.979 28.4541L195.294 30.5332C194.108 30.8538 192.929 29.9973 192.867 28.7705L192.47 20.8193C192.453 20.4786 192.346 20.148 192.159 19.8623L187.807 13.1963C187.135 12.1676 187.586 10.7815 188.733 10.3438L196.173 7.50781C196.492 7.38636 196.772 7.18249 196.986 6.91699L201.982 0.717773Z" fill="#00448E"/>
<path d="M866.003 182.5C866.003 202.395 856.747 217.995 840.074 227.174L840.073 227.175C832.283 231.44 822.994 233.124 813.454 233.755C803.925 234.385 794.024 233.965 785.065 233.965H784.276V214.78H785.065C792.149 214.78 801.384 215.099 810.157 214.682C818.962 214.263 827.088 213.107 831.987 210.269L831.991 210.266C841.085 205.068 845.75 196.647 845.75 184.643V103.427H816.434C805.936 103.427 798.109 107.415 792.873 113.357C787.623 119.316 784.939 127.286 784.841 135.282C784.743 143.279 787.233 151.245 792.252 157.199C797.257 163.136 804.815 167.117 814.972 167.117C819.496 167.117 822.974 166.831 826.158 165.943C829.333 165.059 832.261 163.565 835.66 161.096L836.913 160.185V181.006L836.514 181.232C832.736 183.373 829.515 184.632 826.136 185.35C822.767 186.065 819.273 186.235 814.972 186.235C790.986 186.235 774.919 172.142 768.686 154.217C762.463 136.32 766.036 114.593 781.249 99.2695C791.151 89.2952 801.781 84.2422 816.434 84.2422H866.003V182.5ZM328.019 99.0635C358.609 67.7883 414.296 88.997 414.297 134.769C414.297 190.491 338.066 204.187 317.411 154.418V154.417C309.787 136 313.421 113.563 328.019 99.0635ZM669.083 99.0654C699.673 67.7871 755.364 88.9967 755.364 134.77C755.364 190.492 679.133 204.187 658.479 154.418H658.478C650.853 135.999 654.555 113.563 669.083 99.0654ZM524.241 123.642C529.608 122.972 534.925 122.988 540.294 123.688L561.593 84.2559H583.365L558.334 127.807C564.575 129.648 569.284 132.527 572.819 136.195C576.535 140.05 578.919 144.737 580.449 149.906C583.497 160.201 583.189 172.559 583.189 184.321V185.11H563.534V184.321C563.534 177.251 563.981 170.531 563.2 164.371C562.426 158.261 560.45 152.836 555.679 148.416L555.677 148.414C547.928 141.18 536.069 140.227 524.241 141.578V185.11H504.586V38.7344H524.241V123.642ZM626.101 145.025C626.101 153.988 627.952 159.175 631.557 162.176C635.201 165.21 640.839 166.193 648.904 166.193H649.693V185.11H648.904C634.136 185.11 623.366 182.684 616.304 176.357C609.219 170.01 606.047 159.907 606.047 145.025V38.7344H626.101V145.025ZM468.264 84.1279C474.943 83.9101 481.981 84.2461 489.065 84.2461H489.855V103.229H489.065C486.893 103.229 484.251 103.153 481.42 103.084C478.583 103.015 475.547 102.953 472.566 102.978C466.559 103.028 460.925 103.436 457.595 104.777L457.596 104.778C453.893 106.283 451.726 108.958 450.464 112.795C449.186 116.681 448.851 121.724 448.851 127.878V185.101H429.195V127.878C429.195 117.699 430.259 109.017 433.266 102.156C436.289 95.2571 441.265 90.2285 448.983 87.373C455.078 85.1221 461.554 84.3468 468.264 84.1279ZM314.913 57.5H314.124C303.625 57.5 295.889 59.8388 290.782 64.3789C285.838 68.7745 283.232 75.3476 283.087 84.2373H306.739V103.222H283.08V185.093H263.026V103.222H242.754V84.2373H263.031C263.227 69.6397 268.863 58.2554 277.966 50.4951C287.217 42.6084 299.989 38.5156 314.124 38.5156H314.913V57.5ZM363.93 103.426C353.923 103.426 346.468 107.344 341.504 113.188C336.525 119.05 334.016 126.894 334.016 134.769C334.016 142.643 336.525 150.487 341.504 156.349C346.468 162.193 353.922 166.112 363.93 166.112C373.954 166.112 381.421 162.193 386.394 156.349C391.38 150.487 393.894 142.643 393.894 134.769C393.893 126.895 391.38 119.051 386.394 113.189C381.421 107.345 373.954 103.426 363.93 103.426ZM705.063 103.426C695.039 103.426 687.572 107.345 682.6 113.189C677.613 119.051 675.1 126.896 675.1 134.77C675.1 142.643 677.613 150.487 682.6 156.349C687.572 162.193 695.039 166.112 705.063 166.112C715.071 166.112 722.525 162.194 727.489 156.35C732.468 150.488 734.977 142.644 734.978 134.77C734.978 126.895 732.468 119.051 727.489 113.189C722.525 107.345 715.071 103.426 705.063 103.426Z" fill="#00448E"/>
<path d="M204.981 0.717267C204.21 -0.239106 202.753 -0.239072 201.982 0.717267L196.986 6.91655C196.772 7.18218 196.491 7.3865 196.172 7.508L188.733 10.3432C187.585 10.7808 187.135 12.1669 187.806 13.1956L192.158 19.862C192.345 20.1477 192.453 20.478 192.47 20.8188L192.867 28.7705C192.929 29.9973 194.107 30.8537 195.293 30.5331L202.979 28.4536C203.308 28.3647 203.655 28.3647 203.984 28.4536L211.669 30.5331C212.855 30.8539 214.034 29.9974 214.096 28.7705L214.493 20.8188C214.51 20.478 214.617 20.1477 214.804 19.862L219.156 13.1956C219.828 12.1669 219.378 10.7808 218.23 10.3432L210.79 7.508C210.472 7.38648 210.19 7.18224 209.976 6.91655L204.981 0.717267Z" fill="#C36404"/>
</g>
<defs>
<clipPath id="clip0_3009_3235">
<rect width="866" height="236" fill="white"/>
</clipPath>
</defs>
</svg>