<svg width="1080" height="1080" viewBox="0 0 1080 1080" fill="none" xmlns="http://www.w3.org/2000/svg">
<rect width="1080" height="1080" fill="#1E1E1E"/>
<path d="M78 144H62V128H78V144ZM94 128H78V112H94V128ZM78 80H62V64H78V80ZM94 96H78V80H94V96ZM110 112H94V96H110V112ZM222.016 127.92V143.92L142.016 144V128L222.016 127.92Z" fill="white"/>
<path d="M79.3606 458V525.2H62.5606V458H79.3606ZM79.3606 542V525.2H146.561V542H79.3606ZM163.377 474.8H180.177V525.2H230.577V474.8H247.377V525.2H230.577V542H180.177V525.2H163.377V474.8ZM230.577 458V474.8H180.177V458H230.577ZM264.193 474.8H280.993V525.2H264.193V474.8ZM348.193 458V474.8H280.993V458H348.193ZM280.993 525.2H348.193V542H280.993V525.2ZM365.01 542V458H432.21V474.8H449.01V542H432.21V508.4H381.81V542H365.01ZM381.81 474.8V491.6H432.21V474.8H381.81ZM482.626 458V525.2H465.826V458H482.626ZM482.626 542V525.2H549.826V542H482.626ZM633.843 542V508.4H583.443V542H566.643V458H583.443V491.6H633.843V458H650.643V542H633.843ZM667.459 474.8H684.259V525.2H734.659V474.8H751.459V525.2H734.659V542H684.259V525.2H667.459V474.8ZM734.659 458V474.8H684.259V458H734.659ZM852.275 508.4V525.2H835.475V508.4H852.275ZM785.075 508.4V491.6H835.475V508.4H785.075ZM785.075 474.8V491.6H768.275V474.8H785.075ZM768.275 542V525.2H835.475V542H768.275ZM785.075 474.8V458H852.275V474.8H785.075ZM902.692 542V474.8H885.892V491.6H869.092V458H953.092V491.6H936.292V474.8H919.492V542H902.692ZM1003.51 491.6V474.8H1020.31V491.6H1003.51ZM1003.51 525.2V508.4H1020.31V525.2H1003.51ZM146.561 643H129.761V626.2H112.961V609.4H96.1606V626.2H79.3606V643H62.5606V559H79.3606V609.4H96.1606V592.6H112.961V609.4H129.761V559H146.561V643ZM247.377 626.2V643H180.177V626.2H247.377ZM247.377 559V575.8H180.177V592.6H213.777V609.4H180.177V626.2H163.377V559H247.377ZM264.193 559H331.393V575.8H348.193V592.6H331.393V609.4H280.993V626.2H331.393V609.4H348.193V626.2H331.393V643H264.193V559ZM280.993 575.8V592.6H331.393V575.8H280.993ZM449.01 575.8V592.6H432.21V575.8H449.01ZM449.01 609.4V626.2H432.21V609.4H449.01ZM381.81 609.4V592.6H432.21V609.4H381.81ZM365.01 643V626.2H432.21V643H365.01ZM365.01 575.8V559H432.21V575.8H365.01Z" fill="white"/>
</svg>
