<svg xmlns="http://www.w3.org/2000/svg" width="150" height="40" viewBox="0 0 150 40" fill="none">
<path d="M21.898 6.7928L22.9186 0.235809C21.91 0.0792719 20.8778 0 19.8501 0H19.8345V13.3779H19.8501C20.415 13.3779 20.9738 13.4501 21.5115 13.5926L23.2443 7.07377C22.8011 6.95636 22.3518 6.86354 21.898 6.7928Z" fill="black"/>
<path d="M16.6194 14.2419L13.285 8.50625L13.2845 8.50575C12.8915 8.73403 12.5081 8.98138 12.1412 9.24829L8.15858 3.80061C8.99632 3.19001 9.88783 2.64213 10.8095 2.17051L13.8403 8.07678C14.4554 7.7627 15.0942 7.49729 15.75 7.28355L13.6881 0.974412C14.673 0.653812 15.6922 0.408471 16.7179 0.245913L17.7783 6.90726C17.3295 6.97801 16.8832 7.07534 16.444 7.19324L18.1697 13.5977C17.6275 13.7432 17.1064 13.96 16.6194 14.2419Z" fill="black"/>
<path d="M8.17075 13.8982L2.15079 10.8382C1.67991 11.7619 1.27888 12.7302 0.959764 13.7166L7.38779 15.7917C7.59785 15.143 7.86118 14.5063 8.17125 13.8987L8.17075 13.8982Z" fill="black"/>
<path d="M50.1339 13.5665H55.396L60.929 26.0694H57.962L53.6281 16.2758H52.8477V26.0694H50.1339V13.5665Z" fill="black"/>
<path d="M105.475 26.0695H102.761V13.5666H105.475V26.0695Z" fill="black"/>
<path d="M102.761 26.0695L97.2282 13.5666H90.9614V26.0695H93.6752V16.2759H95.4602L99.7941 26.0695H102.761Z" fill="black"/>
<path d="M66.4618 13.5666L60.929 26.0694L63.8958 26.0695L68.2297 16.2759H69.0101V26.0695H71.7239V13.5666H66.4618Z" fill="black"/>
<path fill-rule="evenodd" clip-rule="evenodd" d="M78.8952 13.5666H83.8599L89.3929 26.0695H86.4259L84.6232 21.9955H78.1319L76.3293 26.0695H73.3623L78.8952 13.5666ZM80.6632 16.2759L79.3309 19.2862H83.4242L82.0919 16.2759H80.6632Z" fill="black"/>
<path d="M106.982 16.2759V13.5666H122.36V16.2759H116.028V26.0695H113.314V16.2759H106.982Z" fill="black"/>
<path d="M126.581 13.5666H123.868V26.0695H135.677V23.3602H126.581V13.5666Z" fill="black"/>
<path d="M150 13.5666V16.2759H139.899V18.2827H148.655V20.992H139.899V23.3602H150V26.0695H137.185V13.5666H150Z" fill="black"/>
<path d="M31.1768 13.2571L25.4338 16.589C25.7167 17.0747 25.9338 17.5955 26.08 18.1358L32.4945 16.4099C32.6126 16.8484 32.7101 17.2934 32.7814 17.741L39.4527 16.6803C39.2894 15.6568 39.0431 14.6388 38.721 13.655L32.4025 15.7175C32.1879 15.0628 31.9221 14.4256 31.607 13.8115L37.5209 10.7816C37.0485 9.86246 36.4987 8.9724 35.8871 8.13654L30.432 12.1152C30.6999 12.4814 30.9477 12.8638 31.1763 13.2566L31.1768 13.2571Z" fill="black"/>
<path d="M28.8356 2.14226C27.9095 1.67269 26.9394 1.27275 25.9525 0.954687L23.8775 7.3732C24.5268 7.58242 25.165 7.84532 25.7746 8.15438L28.8356 2.14226Z" fill="black"/>
<path d="M26.4368 8.38784L23.0642 14.2314C23.5527 14.5123 24.003 14.8565 24.4035 15.2549L33.8624 5.77939C33.1287 5.04939 32.3316 4.37156 31.4934 3.76448L27.5921 9.13591C27.2203 8.86699 26.8353 8.61663 26.4373 8.38734L26.4368 8.38784Z" fill="black"/>
<path d="M14.2576 16.6064L8.40604 13.2359C8.6357 12.8385 8.88697 12.4542 9.15633 12.0834L3.77812 8.18603C4.3862 7.34966 5.06563 6.55443 5.79734 5.82192L15.2843 15.2688C14.8848 15.6692 14.5391 16.1192 14.2576 16.6064Z" fill="black"/>
<path d="M7.08686 16.4219L13.6154 18.1563H13.6159C13.4727 18.6937 13.3998 19.2531 13.3998 19.818H0C0 18.789 0.0799043 17.7544 0.237703 16.744L6.80443 17.766C6.87529 17.3129 6.96876 16.8644 7.08686 16.4219Z" fill="black"/>
<path d="M31.5298 25.7377L37.5497 28.7977C38.0206 27.8741 38.4216 26.9057 38.7407 25.9194L32.3127 23.8442C32.1027 24.493 31.8393 25.1296 31.5293 25.7372L31.5298 25.7377Z" fill="black"/>
<path d="M23.0818 25.3941L26.4161 31.1298C26.8091 30.9015 27.1926 30.6542 27.5594 30.3873L31.5421 35.8349C30.7043 36.4455 29.8128 36.9934 28.8912 37.465L25.8603 31.5588C25.2452 31.8729 24.607 32.1383 23.9507 32.352L26.0126 38.6611C25.0276 38.9817 24.0085 39.2271 22.9828 39.3896L21.9229 32.7288C22.3717 32.6581 22.8174 32.5607 23.2572 32.4428L21.5314 26.0383C22.0737 25.8929 22.5948 25.6761 23.0818 25.3941Z" fill="black"/>
<path d="M8.52373 26.3789L14.2673 23.047C13.9844 22.5613 13.7673 22.0405 13.621 21.5002L7.20656 23.2261C7.08846 22.7876 6.99097 22.3425 6.91961 21.895L0.247851 22.9556C0.411178 23.9792 0.657424 24.9972 0.979553 25.981L7.29802 23.9184C7.51261 24.5732 7.77846 25.2104 8.09355 25.8245L2.17963 28.8544C2.65202 29.7735 3.2018 30.6636 3.81339 31.4995L9.26849 27.5208C9.00064 27.1546 8.75288 26.7722 8.52423 26.3794L8.52373 26.3789Z" fill="black"/>
<path d="M10.8656 37.4936C11.7917 37.9632 12.7618 38.3631 13.7487 38.6812L15.8237 32.2627C15.1744 32.0535 14.5362 31.7906 13.9266 31.4815L10.8656 37.4936Z" fill="black"/>
<path d="M13.2638 31.2482L16.6364 25.4046C16.1479 25.1236 15.6977 24.7795 15.2971 24.3811L5.83827 33.8566C6.57199 34.5866 7.36902 35.2644 8.20726 35.8715L12.1085 30.5001C12.4804 30.769 12.8653 31.0194 13.2633 31.2487L13.2638 31.2482Z" fill="black"/>
<path d="M25.4438 23.0295L31.2955 26.4001L31.295 26.4006C31.0653 26.7979 30.814 27.1823 30.5447 27.553L35.9229 31.4504C35.3148 32.2868 34.6354 33.082 33.9037 33.8145L24.4172 24.3671C24.8167 23.9667 25.1624 23.5167 25.4438 23.0295Z" fill="black"/>
<path d="M18.1888 26.0433L16.456 32.5621C16.8993 32.6795 17.3486 32.7723 17.8023 32.8431L16.7822 39.4001C17.7908 39.5566 18.823 39.6359 19.8507 39.6359H19.8663V26.258H19.8507C19.2859 26.258 18.727 26.1857 18.1893 26.0433H18.1888Z" fill="black"/>
<path d="M26.0853 21.4796C26.2285 20.9419 26.3014 20.3832 26.3014 19.8184H39.7012C39.7012 20.8474 39.6213 21.882 39.4635 22.8924L32.8963 21.8699C32.8254 22.323 32.7319 22.7715 32.6138 23.214L26.0853 21.4796Z" fill="black"/>
</svg>