<svg width="686.000000" height="686.000000" viewBox="0 0 686 686" fill="none" xmlns="http://www.w3.org/2000/svg" xmlns:xlink="http://www.w3.org/1999/xlink">
	<desc>
			Created with Pixso.
	</desc>
	<defs/>
	<rect id="miptblockchain" rx="0.000000" width="685.000000" height="685.000000" transform="translate(0.500000 0.500000)" fill="#FFFFFF" fill-opacity="0"/>
	<path id="_mipt block chain" d="M326.26 17.57C326.26 12.72 328.02 8.59 331.53 5.15C335.05 1.71 339.94 0 346.2 0C352.62 0 357.74 1.71 361.56 5.15C365.39 8.59 367.3 12.72 367.3 17.57C367.3 22.56 365.39 26.7 361.56 29.98C357.74 33.11 352.62 34.67 346.2 34.67C339.94 34.67 335.05 33.11 331.53 29.98C328.02 26.7 326.26 22.56 326.26 17.57ZM579.4 75.2L556.7 75.2L556.7 49.43L579.4 49.43L579.4 22.72L609.2 14.05L609.2 49.43L669.26 49.43L669.26 75.2L609.2 75.2L609.2 108.7C609.2 120.73 611.41 129.47 615.85 134.94C620.28 140.25 626.47 142.91 634.42 142.91C638.54 142.91 642.29 142.44 645.65 141.5C649.01 140.41 651.99 139.08 654.59 137.52C657.34 135.96 659.79 134.24 661.92 132.36C664.22 130.49 666.28 128.77 668.11 127.21L681.87 148.29C679.27 151.42 675.99 154.31 672.01 156.96C668.19 159.46 663.99 161.73 659.4 163.76C654.97 165.63 650.31 167.11 645.42 168.21C640.53 169.3 635.71 169.85 630.98 169.85C613.86 169.85 600.95 165.01 592.23 155.32C583.68 145.48 579.4 129.94 579.4 108.7L579.4 75.2ZM415.35 49.43L454.32 49.43L457.76 63.48L458.67 63.48C466.62 51.93 479.46 46.15 497.19 46.15C504.22 46.15 510.64 47.32 516.44 49.66C522.4 51.85 527.45 55.36 531.57 60.2C535.85 65.05 539.14 71.14 541.43 78.48C543.72 85.82 544.87 94.64 544.87 104.95C544.87 114.95 543.57 124.01 540.97 132.13C538.38 140.09 534.63 146.89 529.74 152.51C524.85 158.13 518.89 162.43 511.86 165.4C504.83 168.36 496.81 169.85 487.79 169.85C483.05 169.85 478.39 169.46 473.8 168.68C469.22 168.05 465.4 166.96 462.34 165.4L462.34 213.42L432.54 213.42L432.54 75.2L415.35 75.2L415.35 49.43ZM195.68 166.57L195.68 94.88C195.68 90.19 195.38 86.44 194.76 83.63C194.15 80.67 193.31 78.4 192.24 76.84C191.33 75.12 190.1 74.03 188.57 73.56C187.2 72.93 185.75 72.62 184.22 72.62C181.62 72.62 179.18 73.48 176.88 75.2C174.74 76.92 173.29 79.1 172.53 81.76L172.53 166.57L145.02 166.57L145.02 49.43L166.8 49.43L170.01 62.31L170.69 62.31C172.99 57.78 176.35 54.11 180.78 51.3C185.21 48.33 190.41 46.85 196.37 46.85C201.41 46.85 206.23 48.1 210.81 50.6C215.4 53.1 218.53 57.47 220.21 63.72C222.5 58.25 226.02 54.11 230.76 51.3Q234.68 48.84 238.95 47.74Q242.42 46.85 246.11 46.85C250.24 46.85 253.91 47.48 257.12 48.73C260.48 49.82 263.38 51.85 265.83 54.82C268.27 57.78 270.11 61.84 271.33 67C272.71 72 273.39 78.48 273.39 86.44L273.39 166.57L245.89 166.57L245.89 91.6C245.89 84.57 244.74 79.65 242.45 76.84C240.31 74.03 237.63 72.62 234.42 72.62C231.67 72.62 229.3 73.32 227.32 74.73Q227.13 74.85 226.95 74.98L226.95 74.98Q224.26 76.89 223.19 81.06L223.19 166.57L195.68 166.57ZM291.42 140.8L331.76 140.8L331.76 75.2L291.42 75.2L291.42 49.43L361.56 49.43L361.56 140.8L403.97 140.8L403.97 166.57L291.42 166.57L291.42 140.8ZM488.25 71.92C482.44 71.92 477.09 73.4 472.2 76.37C467.46 79.34 464.18 83.79 462.34 89.72L462.34 138.45C464.48 140.17 467.54 141.58 471.51 142.67C475.64 143.61 479.77 144.08 483.89 144.08C488.17 144.08 492.14 143.37 495.81 141.97C499.48 140.41 502.69 137.99 505.44 134.71C508.19 131.43 510.33 127.29 511.86 122.29C513.39 117.29 514.15 111.28 514.15 104.25C514.15 93.94 511.71 85.98 506.82 80.35C501.93 74.73 495.74 71.92 488.25 71.92ZM20.86 193.98L122.64 193.98L122.64 219.05L20.86 219.05L20.86 193.98ZM0 260.65L47.45 260.65L47.45 316.87L48.37 316.87C51.58 313.12 55.85 310.16 61.2 307.97C66.71 305.78 73.43 304.69 81.38 304.69C96.51 304.69 108.58 309.53 117.6 319.22C126.77 328.9 131.35 343.5 131.35 363.03C131.35 373.49 129.82 382.78 126.77 390.91C123.71 398.87 119.36 405.59 113.7 411.05C108.2 416.36 101.4 420.42 93.3 423.24C85.35 426.05 76.33 427.45 66.25 427.45C54.33 427.45 44.32 426.05 36.22 423.24C28.27 420.42 22.08 417.61 17.65 414.8L17.65 286.42L0 286.42L0 260.65ZM160.38 260.65L209.21 260.65L209.21 368.88C209.21 380.91 210.66 389.27 213.56 393.95C216.47 398.64 221.13 400.98 227.55 400.98C232.28 400.98 236.18 400.51 239.24 399.57C242.29 398.48 245.35 397 248.41 395.12L259.64 416.21C257.04 417.93 254.44 419.57 251.85 421.13C249.25 422.53 246.5 423.7 243.59 424.64C240.69 425.74 237.48 426.52 233.96 426.98C230.6 427.61 226.78 427.92 222.5 427.92C208.14 427.92 197.36 424.17 190.18 416.68C183 409.18 179.4 398.56 179.4 384.81L179.4 286.42L160.38 286.42L160.38 260.65ZM552.8 260.65L601.4 260.65L601.4 354.12L608.28 354.12L645.88 307.5L680.95 307.5L634.64 360.92L664.68 398.87L686 398.87L686 424.64L648.86 424.64L609.43 376.15L601.4 376.15L601.4 424.64L571.6 424.64L571.6 286.42L552.8 286.42L552.8 260.65ZM285.91 366.07C285.91 356.23 287.37 347.49 290.27 339.83C293.17 332.18 297.3 325.7 302.65 320.39C308 315.08 314.34 311.09 321.68 308.44C329.16 305.63 337.49 304.22 346.66 304.22C356.29 304.22 364.85 305.71 372.34 308.67C379.98 311.64 386.4 315.86 391.6 321.32C396.79 326.63 400.69 333.12 403.29 340.77C406.04 348.42 407.41 356.86 407.41 366.07C407.41 375.91 405.96 384.66 403.06 392.31C400.15 399.96 396.03 406.45 390.68 411.76C385.33 417.07 378.91 421.13 371.42 423.94C364.09 426.59 355.83 427.92 346.66 427.92C337.04 427.92 328.4 426.44 320.76 423.47C313.27 420.5 306.93 416.36 301.73 411.05C296.54 405.59 292.56 399.03 289.81 391.37C287.21 383.72 285.91 375.29 285.91 366.07ZM540.51 413.4C534.25 418.24 526.91 421.91 518.51 424.41C510.1 426.75 501.31 427.92 492.14 427.92C482.21 427.92 473.35 426.44 465.55 423.47C457.91 420.5 451.42 416.36 446.07 411.05C440.87 405.59 436.9 399.03 434.15 391.37C431.39 383.72 430.02 375.29 430.02 366.07C430.02 356.23 431.62 347.49 434.83 339.83C438.04 332.18 442.47 325.7 448.13 320.39C453.94 315.08 460.74 311.09 468.53 308.44C476.33 305.63 484.81 304.22 493.98 304.22C502.54 304.22 510.56 305.24 518.05 307.27C525.54 309.3 531.27 311.25 535.24 313.12L535.24 354.36L510.03 354.36L510.03 332.8C505.29 331.71 500.55 331.16 495.81 331.16C491.53 331.16 487.25 331.87 482.97 333.27C478.85 334.52 475.1 336.63 471.74 339.6C468.53 342.41 465.86 346 463.72 350.38C461.73 354.75 460.74 359.98 460.74 366.07C460.74 371.07 461.58 375.68 463.26 379.89C464.94 384.11 467.31 387.78 470.37 390.91C473.42 394.03 477.17 396.53 481.6 398.4C486.18 400.12 491.23 400.98 496.73 400.98C505.44 400.98 512.55 399.73 518.05 397.23C523.7 394.73 527.91 392.55 530.66 390.67L540.51 413.4ZM316.63 366.07C316.63 371.23 317.32 375.99 318.7 380.36C320.07 384.74 322.06 388.56 324.66 391.84C327.25 395.12 330.39 397.7 334.05 399.57C337.72 401.29 341.93 402.15 346.66 402.15C355.53 402.15 362.71 399.26 368.21 393.48C373.87 387.7 376.69 378.57 376.69 366.07C376.69 355.3 374.1 346.63 368.9 340.07C363.7 333.35 356.29 329.99 346.66 329.99C342.38 329.99 338.41 330.7 334.74 332.1C331.07 333.35 327.87 335.46 325.11 338.43C322.52 341.39 320.45 345.14 318.92 349.67C317.4 354.2 316.63 359.67 316.63 366.07ZM73.12 330.46C70.98 330.46 68.62 330.85 66.02 331.63C63.42 332.41 60.9 333.51 58.45 334.91C56.16 336.32 53.94 338.11 51.8 340.3C49.82 342.33 48.37 344.67 47.45 347.33L47.45 396.06C49.89 397.31 53.26 398.56 57.54 399.81C61.81 401.06 66.4 401.68 71.29 401.68C75.26 401.68 79.01 400.98 82.52 399.57C86.19 398.01 89.32 395.67 91.92 392.55C94.67 389.42 96.81 385.52 98.34 380.83C99.87 376.15 100.63 370.52 100.63 363.96C100.63 352.87 98.26 344.52 93.53 338.9C88.94 333.27 82.14 330.46 73.12 330.46ZM463.72 533.71C463.72 528.87 465.48 524.73 468.99 521.3C472.51 517.86 477.4 516.14 483.66 516.14C490.08 516.14 495.2 517.86 499.02 521.3C502.84 524.73 504.75 528.87 504.75 533.71C504.75 538.71 502.84 542.85 499.02 546.13C495.2 549.25 490.08 550.82 483.66 550.82C477.4 550.82 472.51 549.25 468.99 546.13C465.48 542.85 463.72 538.71 463.72 533.71ZM140.43 518.72L186.74 518.72L186.74 578.7L187.66 578.7C191.33 573.7 196.22 569.71 202.33 566.75Q211.5 562.3 223.88 562.3Q232.59 562.3 239.93 564.64C244.82 566.2 249.02 568.78 252.53 572.37C256.05 575.96 258.8 580.88 260.79 587.13C262.77 593.22 263.77 600.8 263.77 609.85L263.77 682.72L233.96 682.72L233.96 616.18C233.96 606.65 231.98 599.78 228 595.56C224.03 591.35 218.83 589.24 212.42 589.24C206.76 589.24 201.56 591.03 196.83 594.63C192.09 598.06 188.73 602.51 186.74 607.98L186.74 682.72L156.94 682.72L156.94 544.49L140.43 544.49L140.43 518.72ZM128.14 671.47Q118.74 678.73 106.14 682.48C97.73 684.82 88.94 686 79.77 686Q64.87 686 53.18 681.54C45.54 678.58 39.04 674.44 33.69 669.13C28.5 663.66 24.52 657.1 21.77 649.45C19.02 641.79 17.65 633.36 17.65 624.15C17.65 614.31 19.25 605.56 22.46 597.91C25.67 590.25 30.1 583.77 35.76 578.46Q37.79 576.6 39.98 574.96Q47.19 569.57 56.16 566.51C63.95 563.7 72.44 562.3 81.61 562.3C90.16 562.3 98.19 563.31 105.68 565.34C113.17 567.37 118.9 569.32 122.87 571.2L122.87 612.43L97.65 612.43L97.65 590.88C92.92 589.78 88.18 589.24 83.44 589.24C79.16 589.24 74.88 589.94 70.6 591.35C66.48 592.6 62.73 594.7 59.37 597.67C56.16 600.48 53.49 604.08 51.35 608.45C49.36 612.82 48.37 618.05 48.37 624.15C48.37 629.14 49.21 633.75 50.89 637.97C52.57 642.19 54.94 645.86 57.99 648.98C61.05 652.1 64.79 654.6 69.23 656.48C73.81 658.19 78.86 659.05 84.36 659.05C93.07 659.05 100.18 657.8 105.68 655.3C111.33 652.81 115.53 650.62 118.29 648.75L128.14 671.47ZM555.56 565.58L595.67 565.58L599.11 581.04L600.03 581.04C603.54 576.04 608.59 571.67 615.16 567.92C621.73 564.17 629.6 562.3 638.77 562.3C644.43 562.3 649.7 563.08 654.59 564.64C659.63 566.2 663.91 568.78 667.43 572.37C670.94 575.96 673.69 580.88 675.68 587.13C677.82 593.22 678.89 600.8 678.89 609.85L678.89 682.72L649.09 682.72L649.09 616.18C649.09 606.65 646.95 599.78 642.67 595.56C638.54 591.35 633.27 589.24 626.85 589.24C621.2 589.24 616 590.96 611.26 594.39C606.68 597.67 603.54 601.81 601.86 606.81L601.86 682.72L572.06 682.72L572.06 591.35L555.56 591.35L555.56 565.58ZM298.52 573.54C304.64 570.73 311.67 568.31 319.61 566.28C327.71 564.25 337.26 563.23 348.27 563.23C356.22 563.23 362.94 564.25 368.44 566.28C374.1 568.15 378.6 570.89 381.97 574.48C385.48 578.07 388 582.37 389.53 587.36C391.06 592.36 391.82 597.98 391.82 604.23Q391.82 616.18 390.91 624.61C390.45 630.24 390.22 635.24 390.22 639.61C390.22 642.89 390.37 646.56 390.68 650.62C390.98 652.81 391.21 654.91 391.37 656.94L406.27 656.94L406.27 682.72L368.21 682.72L365.23 666.78L364.09 666.78C361.03 671.63 356.67 675.84 351.02 679.44C345.36 682.87 337.72 684.59 328.09 684.59C316.63 684.59 307.54 681.47 300.81 675.22C294.09 668.97 290.73 660.69 290.73 650.39C290.73 643.83 291.87 638.2 294.17 633.52C296.61 628.68 300.05 624.77 304.48 621.8C309.07 618.68 314.49 616.41 320.76 615.01C327.18 613.45 334.28 612.67 342.08 612.67C344.83 612.67 347.73 612.82 350.79 613.13C353.85 613.45 357.59 613.76 362.02 614.07C362.33 612.51 362.48 610.95 362.48 609.39L362.48 604.93C362.48 599 360.8 594.78 357.44 592.28C354.08 589.63 349.11 588.3 342.54 588.3C334.74 588.3 327.71 589.32 321.45 591.35C315.18 593.38 309.91 595.41 305.63 597.44L298.52 573.54ZM428.87 656.94L469.22 656.94L469.22 591.35L428.87 591.35L428.87 565.58L499.02 565.58L499.02 656.94L541.43 656.94L541.43 682.72L428.87 682.72L428.87 656.94ZM337.72 659.52C345.06 659.52 350.56 658.19 354.23 655.54C357.9 652.73 360.57 649.76 362.25 646.64L362.25 632.58C360.72 632.27 358.43 631.95 355.37 631.64C352.32 631.17 349.03 630.94 345.52 630.94C342.61 630.94 339.71 631.25 336.81 631.88C333.9 632.34 331.3 633.2 329.01 634.45C326.72 635.55 324.89 637.03 323.51 638.9C322.13 640.78 321.45 643.04 321.45 645.7C321.45 650.07 322.67 653.51 325.11 656.01C327.71 658.35 331.92 659.52 337.72 659.52Z" fill="#000000" fill-opacity="1.000000" fill-rule="evenodd"/>
</svg>
