<svg width="242" height="40" viewBox="0 0 242 40" fill="none" xmlns="http://www.w3.org/2000/svg">
<mask id="mask0_1404_1782" style="mask-type:luminance" maskUnits="userSpaceOnUse" x="64" y="13" width="178" height="21">
<path d="M241.203 13.3333H64.1299V33.3333H241.203V13.3333Z" fill="white"/>
</mask>
<g mask="url(#mask0_1404_1782)">
<path d="M77.1432 33.3333L68.738 17.8902V33.3333H64.1299V13.3358H71.3486L79.1136 27.4772L86.8802 13.3358H94.002V33.3333H89.362V17.8902L80.9826 33.3333H77.1432Z" fill="black"/>
<path d="M108.595 33.3321H103.857V13.3346H108.595V33.3321Z" fill="black"/>
<path d="M117.848 24.0063H132.123C134.894 24.0063 136.474 22.8025 136.474 20.7201C136.474 18.6056 134.894 17.4016 132.123 17.4016H117.848V13.3346H132.376C137.629 13.3346 141.175 15.8723 141.175 20.6879C141.175 24.2661 139.112 26.6465 135.825 27.5524L141.727 33.3321H136.279L130.831 28.0077H122.581V33.3321H117.844L117.848 24.0063Z" fill="black"/>
<path d="M161.147 18.0527L151.899 33.331H146.84L158.504 13.3333H163.821L175.486 33.331H170.362L161.147 18.0527Z" fill="black"/>
<path d="M205.847 33.3321H201.658L186.544 19.4184V33.3321H181.969V13.3346H186.803L201.239 26.4738V13.3346H205.847V33.3321Z" fill="black"/>
<path d="M226.865 18.0527L217.616 33.331H212.557L224.222 13.3333H229.539L241.205 33.331H236.082L226.865 18.0527Z" fill="black"/>
</g>
<path fill-rule="evenodd" clip-rule="evenodd" d="M46.7101 40C49.5591 35.877 51.23 30.8628 51.23 25.4547C51.23 11.3964 39.9401 0 26.0133 0C12.0865 0 0.796631 11.3964 0.796631 25.4547C0.796631 30.8628 2.4675 35.877 5.31646 40C9.87321 33.4055 17.4441 29.0908 26.0133 29.0908C34.5825 29.0908 42.1535 33.4055 46.7101 40Z" fill="black"/>
</svg>
