<svg width="314" height="88" viewBox="0 0 314 88" fill="none" xmlns="http://www.w3.org/2000/svg">
<g clip-path="url(#clip0_2414_216)">
<path d="M127.058 14.7178C127.058 17.4028 127.058 20.2972 127.058 22.6078C125.068 23.014 123.907 23.9312 122.701 24.9722C121.082 26.3718 120.828 28.4982 120.812 30.4882C120.743 39.4286 120.663 48.3722 120.838 57.3094C120.914 61.137 121.609 63.4792 127.058 65.3328C127.058 66.5704 127.058 67.878 127.058 69.1856C127.058 70.4488 127.058 71.842 127.058 73.302C124.405 73.3528 122.006 72.5752 119.781 71.4042C113.621 68.1638 110.475 62.9906 110.406 56.0654C110.326 47.8676 110.38 39.6666 110.38 31.4656C110.383 23.0362 116.81 15.7968 125.183 14.8035C125.744 14.7336 126.405 14.7178 127.058 14.7178Z" fill="black"/>
<path d="M127.699 73.3052C127.699 70.598 127.636 67.694 127.699 65.3264C127.928 65.2726 128.099 65.2122 128.448 65.079C133.05 63.4666 133.917 61.191 133.929 57.0906C133.955 48.3564 133.948 39.6254 133.932 30.8912C133.923 26.2036 131.609 22.9728 127.699 22.6014C127.699 21.3478 127.699 20.0402 127.699 18.7295C127.699 17.4695 127.699 16.1048 127.699 14.721C129.48 14.5338 134.945 15.6732 137.512 17.9964C142.032 21.3764 144.304 25.9656 144.317 31.615C144.336 39.7144 144.323 47.8106 144.323 55.91C144.323 64.022 139.655 70.2902 131.831 72.588C130.584 72.9498 129.026 73.2228 127.699 73.3052Z" fill="black"/>
<path d="M166.213 15.9492H155.619V72.0484H166.213V15.9492Z" fill="black"/>
<path d="M167.216 22.8458V15.9492C167.216 15.9492 172.919 15.9492 176.429 15.9492C179.939 15.9492 186.22 20.713 186.408 25.9782C186.579 30.758 186.427 56.862 186.401 61.702C186.398 62.3368 186.312 62.9524 186.128 63.5586C184.678 68.2876 180.39 71.5756 175.449 71.7532L167.216 72.0484V64.7138C167.216 64.7138 171.164 64.8694 172.386 64.5266C173.608 64.1806 176.093 61.7306 176.083 59.8866C176.074 57.849 176.083 27.9968 176.083 27.9968C176.083 27.9968 176.16 25.9498 174.157 24.3088C173.129 23.4678 171.815 23.0584 170.488 22.995L167.216 22.8458Z" fill="black"/>
<path d="M205.61 15.9492L192.667 72.0516H203.198L205.828 58.7948L213.54 58.8868L212.756 52.587H206.958L209.936 38.0132L205.61 15.9492Z" fill="black"/>
<path d="M206.676 15.9492H215.482L227.768 72.0516H217.086L206.676 15.9492Z" fill="black"/>
<path d="M246.848 15.9492H236.292V72.0484H246.848V15.9492Z" fill="black"/>
<path d="M268.67 15.9492H258.114V72.0484H268.67V15.9492Z" fill="black"/>
<path d="M281.958 65.0156H269.438V72.0518H281.958V65.0156Z" fill="black"/>
<path d="M282.426 15.9492H291.516L303.676 59.5152V72.0516H293.052V55.0022L282.426 15.9492Z" fill="black"/>
<path d="M303.236 55.6274L313.998 15.9492H304.366L298.66 39.016L303.236 55.6274Z" fill="black"/>
<path d="M46.483 1.2326C49.1522 1.60711 51.815 2.10856 54.4048 2.82266C73.6696 8.11646 86.628 25.8164 85.9202 45.7604C85.1998 66.12 69.8514 83.3058 49.6028 86.4066C47.9938 86.654 46.3656 86.7938 44.6168 87V66.6944C46.1878 66.3992 47.7652 66.2024 49.2886 65.7994C60.6792 62.7938 68.0646 51.5778 66.1254 40.2824C64.0848 28.3936 53.805 20.1926 41.9128 20.9638C30.4142 21.7128 20.9818 31.1324 20.7024 42.6246C20.4168 54.523 20.5312 66.431 20.474 78.3356C20.4708 78.964 20.474 79.5892 20.474 80.551C19.8011 80.151 19.3632 79.913 18.9506 79.64C4.37662 69.9696 -2.74848 52.2094 0.977514 34.8394C4.59562 17.9678 18.7506 4.58408 35.889 1.83562C36.5586 1.72771 37.2252 1.61663 37.8916 1.50237C39.1072 1.29608 40.3322 1.13104 41.5636 1.05487C43.214 0.953314 44.7058 0.981878 46.483 1.2326Z" fill="black"/>
<path d="M42.5634 22.7246C42.5634 44.0206 42.5634 65.272 42.5634 86.9424C39.12 86.9424 36.4096 86.371 33.5436 85.5966C30.0906 84.6636 26.7804 83.3686 23.4098 81.9532C22.7908 81.6326 22.3878 81.3946 22.3052 81.2486C22.283 80.9598 22.2546 80.544 22.2576 80.1664C22.2926 68.2584 22.1974 56.3474 22.3052 44.4394C22.4068 33.3186 30.719 24.1338 41.716 22.7278C41.9636 22.6962 42.2206 22.7246 42.5634 22.7246Z" fill="black"/>
</g>
<defs>
<clipPath id="clip0_2414_216">
<rect width="314" height="88" fill="white"/>
</clipPath>
</defs>
</svg>
