<svg width="240" height="60" viewBox="0 0 240 60" fill="none" xmlns="http://www.w3.org/2000/svg">
<g clip-path="url(#clip0_8_177)">
<path d="M41.8572 45.8419L30.4496 40.9139V18.7775C30.4835 17.8075 30.3217 16.8407 29.9739 15.9346C29.6261 15.0285 29.0994 14.2017 28.4252 13.5035C27.751 12.8054 26.9431 12.2501 26.0497 11.8709C25.1563 11.4916 24.1957 11.2962 23.2251 11.2962C22.2545 11.2962 21.2939 11.4916 20.4005 11.8709C19.5071 12.2501 18.6992 12.8054 18.025 13.5035C17.3508 14.2017 16.8241 15.0285 16.4763 15.9346C16.1285 16.8407 15.9667 17.8075 16.0006 18.7775V34.6459L4.99854 29.8413C4.99854 29.8413 4.94564 18.8216 4.94564 18.513C5.26902 13.8353 7.35537 9.45443 10.7834 6.25521C14.2114 3.05599 18.7257 1.27673 23.4146 1.27673C28.1036 1.27673 32.6179 3.05599 36.0459 6.25521C39.4739 9.45443 41.5603 13.8353 41.8836 18.513L41.8572 45.8419Z" fill="#214893"/>
<path d="M36.6559 51.9424C36.3044 51.8863 35.9628 51.7794 35.6421 51.625L5.22775 36.7352C4.09933 36.1445 3.77315 35.263 4.49604 34.6194C4.99566 34.3098 5.56729 34.1356 6.15468 34.1139C6.74207 34.0923 7.32497 34.224 7.84602 34.496L38.2604 49.3682C39.3888 49.9147 39.715 50.8668 38.9921 51.4839C38.6553 51.7173 38.274 51.8785 37.8719 51.9574C37.4699 52.0363 37.0559 52.0312 36.6559 51.9424Z" fill="#E99214"/>
<path d="M25.0896 53.776C24.7377 53.717 24.3962 53.6071 24.0758 53.4498L1.35763 42.3155C0.238026 41.7602 -0.0969731 40.8169 0.625919 40.1998C1.12569 39.8898 1.69791 39.7162 2.28564 39.6961C2.87337 39.676 3.45612 39.8101 3.9759 40.0852L26.6941 51.2106C27.8137 51.7572 28.1399 52.7093 27.417 53.3264C27.0802 53.5561 26.7 53.7145 26.2998 53.7918C25.8995 53.8692 25.4877 53.8638 25.0896 53.776Z" fill="#214893"/>
<path d="M20.8493 59.1801C20.4987 59.12 20.1577 59.0132 19.8354 58.8628L5.21011 51.6956C4.0817 51.1313 3.75552 50.2498 4.47841 49.5886C4.97803 49.279 5.54966 49.1047 6.13705 49.0831C6.72444 49.0615 7.30734 49.1931 7.82839 49.4652L22.4537 56.6236C23.5733 57.179 23.8995 58.1222 23.1766 58.7393C22.8401 58.9695 22.4596 59.1274 22.0591 59.2033C21.6585 59.2792 21.2466 59.2713 20.8493 59.1801Z" fill="#DD5519"/>
<path d="M7.05261 59.9471C6.70488 59.8869 6.36685 59.7801 6.04761 59.6297L1.1196 57.1965C3.67733e-06 56.6412 -0.334995 55.6979 0.387897 55.0808C0.886642 54.7724 1.45725 54.5997 2.04326 54.5796C2.62927 54.5595 3.21037 54.6927 3.72907 54.9662L8.6747 57.3817C9.80312 57.9371 10.1293 58.8804 9.40641 59.4975C9.068 59.7342 8.68331 59.8967 8.27763 59.9742C7.87195 60.0517 7.45446 60.0424 7.05261 59.9471ZM99.8472 13.9641H105.727L119.762 46.2298H111.74L108.963 39.3976H96.4267L93.782 46.2298H85.9007L99.8472 13.9641ZM102.58 23.3529L98.6659 33.3852H106.547L102.58 23.3529Z" fill="#214893"/>
<mask id="mask0_8_177" style="mask-type:luminance" maskUnits="userSpaceOnUse" x="85" y="13" width="35" height="34">
<path d="M99.8472 13.9641H105.727L119.762 46.2298H111.74L108.963 39.3975H96.4267L93.782 46.2298H85.9007L99.8472 13.9641ZM102.58 23.3529L98.6659 33.3852H106.547L102.58 23.3529Z" fill="white"/>
</mask>
<g mask="url(#mask0_8_177)">
<path d="M111.766 27.8489L106.459 33.156L106.547 33.3852H106.23L100.217 39.3976H108.963L109.007 39.5034L114.464 34.0464L111.766 27.8489ZM93.7379 46.2298L93.9759 45.6391L93.3853 46.2298H93.7379Z" fill="#214893"/>
<path d="M114.402 33.923L108.927 39.3976H108.963L111.519 45.692L117.1 40.1116L114.402 33.923Z" fill="#DD5519"/>
<path d="M117.047 39.9882L111.466 45.5686L111.74 46.2298H119.691L119.744 46.1857L117.047 39.9882Z" fill="#E99214"/>
</g>
<path d="M122.609 13.876H132.307L146.068 36.365H146.156V13.876H153.288V46.2298H143.952L129.847 23.203H129.759V46.2298H122.627L122.609 13.876ZM179.259 42.4478C178.17 43.8324 176.76 44.9308 175.151 45.6479C173.539 46.3892 171.786 46.7741 170.012 46.7764C168.39 46.7854 166.779 46.511 165.251 45.9653C163.819 45.4491 162.502 44.6585 161.372 43.638C160.268 42.6185 159.385 41.382 158.781 40.0059C158.157 38.5054 157.836 36.8966 157.836 35.2718C157.836 33.647 158.157 32.0382 158.781 30.5377C159.39 29.1642 160.272 27.9286 161.372 26.9057C162.5 25.8847 163.818 25.0968 165.251 24.5871C166.778 24.0372 168.389 23.7626 170.012 23.7761C171.474 23.7537 172.926 24.0297 174.279 24.5871C175.522 25.1034 176.632 25.8963 177.523 26.9057C178.437 27.9717 179.134 29.2053 179.577 30.5377C180.074 32.0658 180.318 33.6649 180.3 35.2718V37.3964H164.599C164.818 38.5957 165.44 39.6843 166.362 40.4819C167.295 41.2594 168.481 41.6672 169.694 41.628C170.687 41.6602 171.667 41.4029 172.515 40.8874C173.306 40.3802 173.996 39.7317 174.552 38.9744L179.259 42.4478ZM173.529 32.7946C173.556 32.2536 173.469 31.7131 173.275 31.2076C173.081 30.702 172.783 30.2427 172.401 29.8589C172.011 29.4565 171.542 29.1403 171.022 28.9307C170.503 28.7212 169.946 28.6229 169.386 28.6424C168.704 28.6298 168.027 28.7526 167.393 29.0038C166.852 29.237 166.356 29.5655 165.93 29.9735C165.531 30.3404 165.21 30.7842 164.987 31.2783C164.763 31.7702 164.631 32.2991 164.599 32.8387L173.529 32.7946ZM181.781 24.3138H189.001L193.462 38.0664H193.559L197.297 24.3138H204.693L208.757 38.0664H208.845L212.944 24.3138H219.803L212.001 46.2298H205.328L200.77 31.6662H200.682L196.591 46.2298H189.785L181.781 24.3138ZM234.367 30.767C233.905 30.1708 233.309 29.6922 232.627 29.3705C231.946 29.0487 231.197 28.8928 230.444 28.9156C229.864 28.9159 229.293 29.0549 228.778 29.3212C228.517 29.4462 228.3 29.6468 228.156 29.8969C228.011 30.1469 227.945 30.4348 227.967 30.7229C227.966 30.9896 228.052 31.2493 228.211 31.4636C228.369 31.6779 228.593 31.8355 228.848 31.913C229.528 32.2108 230.237 32.4383 230.964 32.5918L233.714 33.2177C234.678 33.4396 235.604 33.7988 236.465 34.2844C237.318 34.7595 238.046 35.4303 238.59 36.2415C239.189 37.2397 239.477 38.3936 239.418 39.5563C239.485 40.7935 239.178 42.0223 238.537 43.0826C237.93 43.9901 237.121 44.7446 236.174 45.2865C235.167 45.866 234.066 46.2629 232.921 46.459C231.759 46.6834 230.578 46.7986 229.395 46.8028C227.824 46.7957 226.261 46.5763 224.749 46.1504C223.243 45.7417 221.873 44.9383 220.782 43.8231L224.802 39.2389C225.372 39.9649 226.086 40.5652 226.9 41.002C227.717 41.4207 228.626 41.6298 229.545 41.6103C230.264 41.6229 230.98 41.5095 231.66 41.2753C231.937 41.2087 232.183 41.0489 232.357 40.8226C232.53 40.5963 232.62 40.3173 232.612 40.0323C232.615 39.7603 232.537 39.4937 232.388 39.2661C232.238 39.0386 232.025 38.8604 231.775 38.754C231.103 38.4242 230.392 38.1813 229.659 38.0311L226.909 37.3964C225.951 37.1809 225.026 36.84 224.158 36.3826C223.3 35.934 222.569 35.276 222.034 34.4696C221.434 33.4715 221.146 32.3175 221.205 31.1549C221.17 29.9917 221.441 28.8398 221.989 27.8137C222.504 26.9196 223.212 26.1516 224.061 25.5657C224.959 24.9508 225.959 24.5001 227.014 24.2345C228.121 23.9535 229.258 23.8113 230.4 23.8113C231.891 23.8146 233.374 24.0252 234.808 24.4372C236.239 24.8335 237.535 25.6139 238.554 26.6941L234.367 30.767ZM67.5992 27.8313V14.017H60.6347V46.3091H67.5992V27.8313ZM79.7737 14.017H71.7867L70.9051 20.1087H79.6415C80.6302 20.156 81.5628 20.5821 82.2458 21.2986C82.9287 22.0151 83.3097 22.9669 83.3097 23.9568C83.3097 24.9466 82.9287 25.8985 82.2458 26.615C81.5628 27.3314 80.6302 27.7575 79.6415 27.8049H69.7679L68.8863 33.6409H79.7737C81.0911 33.6803 82.403 33.4549 83.6316 32.978C84.8602 32.5011 85.9806 31.7824 86.9264 30.8645C87.8722 29.9466 88.6241 28.8482 89.1375 27.6344C89.651 26.4206 89.9155 25.1161 89.9155 23.7981C89.9155 22.4802 89.651 21.1756 89.1375 19.9618C88.6241 18.748 87.8722 17.6496 86.9264 16.7317C85.9806 15.8138 84.8602 15.0951 83.6316 14.6182C82.403 14.1413 81.0911 13.9159 79.7737 13.9553V14.017Z" fill="#214893"/>
<mask id="mask1_8_177" style="mask-type:luminance" maskUnits="userSpaceOnUse" x="68" y="13" width="22" height="21">
<path d="M79.7737 14.017H71.7867L70.9051 20.1087H79.6415C80.6302 20.156 81.5628 20.5821 82.2458 21.2986C82.9288 22.015 83.3098 22.9669 83.3098 23.9567C83.3098 24.9466 82.9288 25.8985 82.2458 26.6149C81.5628 27.3314 80.6302 27.7575 79.6415 27.8048H69.7679L68.8863 33.6408H79.7737C81.0911 33.6803 82.403 33.4549 83.6316 32.9779C84.8602 32.501 85.9806 31.7824 86.9264 30.8645C87.8722 29.9466 88.6241 28.8482 89.1375 27.6344C89.651 26.4205 89.9155 25.116 89.9155 23.7981C89.9155 22.4801 89.651 21.1756 89.1375 19.9618C88.6241 18.7479 87.8722 17.6495 86.9264 16.7317C85.9806 15.8138 84.8602 15.0951 83.6316 14.6182C82.403 14.1413 81.0911 13.9158 79.7737 13.9553V14.017Z" fill="white"/>
</mask>
<g mask="url(#mask1_8_177)">
<path d="M70.7729 27.8137H69.715L68.8334 33.6497H68.9216L74.784 27.7872L70.7729 27.8137ZM80.5583 14.1052L74.5107 20.1528H79.6151C80.4016 20.1499 81.1692 20.3934 81.8102 20.8492L86.2181 16.4413C84.6306 15.0762 82.6465 14.2572 80.5583 14.1052Z" fill="#214893"/>
<path d="M86.1123 16.3356L81.7044 20.7434C82.3933 21.1976 82.9177 21.8614 83.2001 22.6367C83.4826 23.412 83.5081 24.2576 83.2728 25.0484C83.0375 25.8393 82.554 26.5335 81.8937 27.0283C81.2334 27.5231 80.4314 27.7923 79.6063 27.796H74.643L68.8687 33.588V33.6762H76.8028L89.2683 21.2019C88.7307 19.2988 87.6306 17.6026 86.1123 16.3356Z" fill="#DD5519"/>
<path d="M79.7738 33.7026C81.3065 33.7081 82.8192 33.3544 84.1906 32.67C85.562 31.9855 86.754 30.9893 87.671 29.7611C88.588 28.533 89.2046 27.1071 89.4713 25.5978C89.7379 24.0884 89.6473 22.5376 89.2066 21.0696L76.6089 33.6761H79.2536C79.4035 33.6849 79.5886 33.7026 79.7738 33.7026Z" fill="#E99214"/>
</g>
</g>
<defs>
<clipPath id="clip0_8_177">
<rect width="239.374" height="60" fill="white"/>
</clipPath>
</defs>
</svg>
