<svg xmlns="http://www.w3.org/2000/svg" width="284" height="37" viewBox="0 0 284 37" fill="none">
<g clip-path="url(#clip0_1_7)">
<path d="M115.78 2.5H92.42V8.49H100.95V34.25H107.21V8.49H115.78V2.5Z" fill="black"/>
<path d="M125.67 10.94C118.55 10.94 113.7 16.16 113.7 22.91C113.7 29.66 118.51 34.88 126.13 34.88C130.48 34.88 133.89 33.11 136.02 30.03L131.3 27.31C130.3 28.63 128.49 29.58 126.22 29.58C123.14 29.58 120.64 28.31 119.82 25.32H136.92C137.06 24.55 137.15 23.78 137.15 22.92C137.15 16.25 132.39 10.95 125.67 10.95V10.94ZM119.73 20.78C120.41 17.88 122.54 16.2 125.67 16.2C128.12 16.2 130.57 17.52 131.29 20.78H119.72H119.73Z" fill="black"/>
<path d="M151.79 29.08C148.3 29.08 145.71 26.49 145.71 22.91C145.71 19.33 148.3 16.7 151.79 16.7C154.1 16.7 156.05 17.88 156.96 19.74L161.99 16.79C160.13 13.3 156.27 10.94 151.83 10.94C144.94 10.94 139.86 16.16 139.86 22.91C139.86 29.66 144.94 34.88 151.83 34.88C156.27 34.88 160.13 32.52 162.08 28.98L157 26.08C156.09 27.94 154.14 29.07 151.78 29.07L151.79 29.08Z" fill="black"/>
<path d="M177.78 10.94C174.74 10.94 172.38 12.07 171.02 14.11V2.5H165.17V34.25H171.02V22C171.02 18.05 173.15 16.38 176.01 16.38C178.64 16.38 180.5 17.97 180.5 21.05V34.25H186.35V20.33C186.35 14.3 182.59 10.94 177.78 10.94Z" fill="black"/>
<path d="M191.61 34.25H197.87V22.01H210.21V16.02H197.87V8.49H210.57V2.5H191.61V34.25Z" fill="black"/>
<path d="M220.73 1.14H214.88V34.25H220.73V1.14Z" fill="black"/>
<path d="M236.88 10.94C230.21 10.94 224.91 16.16 224.91 22.91C224.91 29.66 230.22 34.88 236.88 34.88C243.54 34.88 248.9 29.66 248.9 22.91C248.9 16.16 243.55 10.94 236.88 10.94ZM236.88 29.17C233.43 29.17 230.76 26.58 230.76 22.91C230.76 19.24 233.44 16.65 236.88 16.65C240.32 16.65 243.05 19.24 243.05 22.91C243.05 26.58 240.37 29.17 236.88 29.17Z" fill="black"/>
<path d="M273.8 25.54L269.67 11.57H264.14L260.01 25.5L256.15 11.57H249.94L257.15 34.25H262.73L266.9 20.51L271.08 34.25H276.66L283.87 11.57H277.65L273.8 25.54Z" fill="black"/>
<path d="M68.54 18.37C62.19 7.39 50.33 0 36.73 0C16.45 0 0 16.45 0 36.73H36.73C50.32 36.73 62.18 29.34 68.54 18.36V18.37Z" fill="url(#paint0_linear_1_7)"/>
<path d="M36.73 0C50.32 0 62.18 7.39 68.54 18.37C71.67 12.96 73.46 6.69 73.46 0H36.73Z" fill="#4D96FF"/>
</g>
<defs>
<linearGradient id="paint0_linear_1_7" x1="0" y1="18.37" x2="68.54" y2="18.37" gradientUnits="userSpaceOnUse">
<stop stop-color="#0072FF"/>
<stop offset="1" stop-color="#0037FF"/>
</linearGradient>
<clipPath id="clip0_1_7">
<rect width="283.87" height="36.73" fill="white"/>
</clipPath>
</defs>
</svg>